<svg 
          width="23.422096252441406" 
          height="23.42167091369629" fill="none" 
          xmlns="http://www.w3.org/2000/svg">
          <path d="M 11.70790010748369 5.702044502889225 C 8.382705404245447 5.702044502889225 5.699112414170062 8.385639196589977 5.699112414170062 11.710835456848145 C 5.699112414170062 15.036031717106312 8.382705404245447 17.71962551673714 11.70790010748369 17.71962551673714 C 15.033094810721932 17.71962551673714 17.71668824783207 15.036031717106312 17.71668824783207 11.710835456848145 C 17.71668824783207 8.385639196589977 15.033094810721932 5.702044502889225 11.70790010748369 5.702044502889225 Z M 11.70790010748369 15.616109649814128 C 9.557509831787378 15.616109649814128 7.802627743158562 13.86122673946309 7.802627743158562 11.710835456848145 C 7.802627743158562 9.560444174233199 9.557509831787378 7.805561263882162 11.70790010748369 7.805561263882162 C 13.858290383180002 7.805561263882162 15.613173365878326 9.560444174233199 15.613173365878326 11.710835456848145 C 15.613173365878326 13.86122673946309 13.858290383180002 15.616109649814128 11.70790010748369 15.616109649814128 Z M 17.96278266799694 4.055559748009795 C 17.186415622747482 4.055559748009795 16.5594618973659 4.682513319927026 16.5594618973659 5.4588807287097705 C 16.5594618973659 6.235248137492515 17.186415622747482 6.862201262374782 17.96278266799694 6.862201262374782 C 18.739149713246398 6.862201262374782 19.36610343862798 6.238177837003418 19.36610343862798 5.4588807287097705 C 19.366334794228926 5.2745290139913825 19.330193569911543 5.091942724161849 19.25975208253447 4.921579571633508 C 19.189310595157394 4.751216419105167 19.08595139633998 4.596423494346155 18.95559500039313 4.466067037360022 C 18.825238604446284 4.33571058037389 18.670447540307926 4.232351780193571 18.500084467551964 4.161910259832323 C 18.329721394796003 4.091468739471076 18.147134296392817 4.055328392300517 17.96278266799694 4.055559748009795 L 17.96278266799694 4.055559748009795 Z M 23.420789122820985 11.710835456848145 C 23.420789122820985 10.093647473560265 23.435438270098647 8.491107931947534 23.344617977033245 6.876849704049929 C 23.253797683967843 5.001849169631226 22.826063362194134 3.3377862176863764 21.4549698857657 1.9666920992444485 C 20.080946655318844 0.5926682254122471 18.419813119001393 0.1678636054258849 16.54481346254987 0.07704326983394755 C 14.927626236508697 -0.013777065757989815 13.325086551214044 0.00087141864522956 11.710829079191289 0.00087141864522956 C 10.093641853150114 0.00087141864522956 8.491104403029231 -0.013777065757989815 6.876846931006476 0.07704326983394755 C 5.001847274554956 0.1678636054258849 3.337784878288593 0.5955979808025207 1.966691401860157 1.9666920992444485 C 0.5926681714133022 3.34071597307665 0.16786352682391442 5.001849169631226 0.07704323375851115 6.876849704049929 C -0.013777059306892131 8.494037687337807 0.0008714182371886242 10.09657722895054 0.0008714182371886242 11.710835456848145 C 0.0008714182371886242 13.325093684745749 -0.013777059306892131 14.930562981748757 0.07704323375851115 16.54482120964636 C 0.16786352682391442 18.419821744065064 0.5955979254317207 20.08388402545747 1.966691401860157 21.454978143899396 C 3.3407146323070114 22.829002017731597 5.001847274554956 23.253806784401306 6.876846931006476 23.344627119993245 C 8.49403415704765 23.435447455585184 10.096571607168533 23.420800089587917 11.710829079191289 23.420800089587917 C 13.328016305232463 23.420800089587917 14.930555990527116 23.435447455585184 16.54481346254987 23.344627119993245 C 18.419813119001393 23.253806784401306 20.083876409337265 22.826072262341324 21.4549698857657 21.454978143899396 C 22.828993116212555 20.080954270067195 23.253797683967843 18.419821744065064 23.344617977033245 16.54482120964636 C 23.438367961252805 14.930562981748757 23.420789122820985 13.328023440136024 23.420789122820985 11.710835456848145 L 23.420789122820985 11.710835456848145 Z M 20.842664595200144 18.61904019321908 C 20.628797441298207 19.152243492546148 20.37098464767212 19.550680726130402 19.957898774684278 19.960837093034492 C 19.544812901696435 20.373923159449486 19.1493055528191 20.63173607379622 18.61610250316396 20.84560332784129 C 17.075087205221344 21.457908178686523 13.41590758468076 21.320213195743992 11.70790010748369 21.320213195743992 C 9.99989263028662 21.320213195743992 6.337784485073188 21.45790924039456 4.796769187130571 20.84853408906023 C 4.263566137475432 20.63466683501516 3.8651286434242715 20.376853920668427 3.4549724685755017 19.963767854253433 C 3.0418865955876573 19.55068178783844 2.7840742489963275 19.15517425376509 2.5702070950943914 18.621970954438023 C 1.9608322290993851 17.078025179525874 2.098527315204404 13.418843733818433 2.098527315204404 11.710835456848145 C 2.098527315204404 10.002827179877857 1.9608322290993851 6.34071687285007 2.5702070950943914 4.799700853328195 C 2.7840742489963275 4.266497554001129 3.0418865955876573 3.8680600968993915 3.4549724685755017 3.4579037299953006 C 3.868058341563346 3.0477473630912097 4.263566137475432 2.7870051962685385 4.796769187130571 2.573137942223468 C 6.337784485073188 1.9637627908891382 9.99989263028662 2.101457941469778 11.70790010748369 2.101457941469778 C 13.41590758468076 2.101457941469778 17.07801796506796 1.9637627908891382 18.61903326301058 2.573137942223468 C 19.152236312665718 2.7870051962685385 19.550673359682126 3.0448176635803064 19.960829534530895 3.4579037299953006 C 20.373915407518737 3.870989796410295 20.63172820114482 4.266497554001129 20.845595355046758 4.799700853328195 C 21.454970221041762 6.34071687285007 21.31727424086724 10.002827179877857 21.31727424086724 11.710835456848145 C 21.31727424086724 13.418843733818433 21.454969159334226 17.07802417369721 20.842664595200144 18.61904019321908 Z" fill="rgb(67.00000360608101,156.00000590085983,198.00000339746475)"/>
        </svg>