<svg 
          width="12.831803321838379" 
          height="10.998687744140625" fill="none" 
          xmlns="http://www.w3.org/2000/svg">
          <path d="M 0 1.8331146240234375 C 0 1.3469423801348057 0.19313120999263084 0.8806824248347311 0.5369069047714237 0.5369067556057416 C 0.8806825995502165 0.19313108637675214 1.3469424802411134 4.070332124735815e-16 1.8331147602626257 0 L 9.165573801313128 0 C 9.65174608133464 4.070332124735815e-16 10.118005634239074 0.19313108637675214 10.461781329017867 0.5369067556057416 C 10.805557023796661 0.8806824248347311 10.998688561575754 1.3469423801348057 10.998688561575754 1.8331146240234375 L 10.998688561575754 2.0173428395355586 L 5.499344280787877 4.9787394656959805 L 0 2.0182593304161855 L 0 1.8331146240234375 Z M 5.716568369389831 5.902628704752715 L 10.998688561575754 3.0585516522842227 L 10.998688561575754 7.33245849609375 C 10.998688561575754 7.818630739982382 10.805557023796661 8.284890258233872 10.461781329017867 8.628665927462862 C 10.118005634239074 8.972441596691851 9.65174608133464 9.165573120117188 9.165573801313128 9.165573120117188 L 1.8331147602626257 9.165573120117188 C 1.3469424802411134 9.165573120117188 0.8806825995502165 8.972441596691851 0.5369069047714237 8.628665927462862 C 0.19313120999263084 8.284890258233872 2.035166213623791e-16 7.818630739982382 0 7.33245849609375 L 0 3.0585516522842227 L 5.282120192185922 5.902628704752715 C 5.348883841271442 5.938568596077687 5.4235217201622055 5.957382151354977 5.499344280787877 5.957382151354977 C 5.575166841413549 5.957382151354977 5.649804720304312 5.938568596077687 5.716568369389831 5.902628704752715 L 5.716568369389831 5.902628704752715 Z M 3.6662295205252513 10.998687744140625 C 3.344458568012895 10.9986795698813 3.0283581300904916 10.913974671736923 2.7496983633109267 10.753085670075961 C 2.4710385965313617 10.592196668415 2.2396375112505225 10.360792226863396 2.078752034994344 10.082130432128906 L 9.165573801313128 10.082130432128906 C 9.894832194029858 10.082130432128904 10.594222411141512 9.792434034745838 11.10988596696747 9.276770517244586 C 11.625549522793428 8.761106999743333 11.915245941707067 8.061716834611161 11.915245941707067 7.33245849609375 L 11.915245941707067 2.0787520990234043 C 12.19390775715202 2.2396375633223897 12.42531221590187 2.4710384128809437 12.586201229520288 2.7496981589501956 C 12.747090243138706 3.0283579050194476 12.831795147578447 3.344458319448904 12.831803321838379 3.666229248046875 L 12.831803321838379 7.33245849609375 C 12.831803321838377 8.304802983871014 12.445541120377426 9.237322894471163 11.75798973081984 9.924874232929142 C 11.070438341262255 10.61242557138712 10.137918361356153 10.998687744140623 9.165573801313128 10.998687744140625 L 3.6662295205252513 10.998687744140625 Z" fill="rgb(0,0,0)"/>
        </svg>