<svg 
          width="114.63231658935547" 
          height="73.69784545898438" fill="none" 
          xmlns="http://www.w3.org/2000/svg">
          <path d="M 114.63231658935547 36.84892272949219 C 114.63231658935547 35.76319257550444 114.2010151262358 34.72193584633974 113.43328809426434 33.95420873937077 C 112.66556106229288 33.1864816324018 111.6242966266377 32.75517231894001 110.53856657871246 32.75517231894001 L 13.983380920286367 32.75517231894001 L 39.74944214426159 6.997297437386118 C 40.13006217314343 6.616677371322375 40.431987157549955 6.164816637612437 40.637977228911865 5.667512553086842 C 40.843967300273775 5.170208468561248 40.94998933590323 4.637199456195559 40.94998933590323 4.098921397127089 C 40.94998933590323 3.560643338058619 40.843967300273775 3.027636277745243 40.637977228911865 2.530332193219649 C 40.431987157549955 2.0330281086940554 40.13006217314343 1.5811654229318042 39.74944214426159 1.2005453568680609 C 39.36882211537976 0.8199252908043175 38.916961425811074 0.5180022289557367 38.41965738986598 0.31201213747112216 C 37.92235335392089 0.10602204598650772 37.389344393623645 -3.635980770290971e-15 36.85106638713833 0 C 36.31278838065302 0 35.77977942035577 0.10602204598650772 35.28247538441068 0.31201213747112216 C 34.78517134846559 0.5180022289557367 34.333310658896906 0.8199252908043175 33.95269063001507 1.2005453568680609 L 1.2026929849361612 33.95054668923316 C 0.8214564430929008 34.33082072352375 0.5189867446420426 34.782574673872055 0.31260894692750507 35.279925546651505 C 0.10623114921296747 35.777276419430954 -9.089951037750693e-16 36.310452942285686 0 36.84892272949219 C -9.089951037750693e-16 37.38739251669869 0.10623114921296747 37.92056903955342 0.31260894692750507 38.41791991233287 C 0.5189867446420426 38.91527078511232 0.8214564430929008 39.367024735460625 1.2026929849361612 39.74729876975122 L 33.95269063001507 72.49730205416863 C 34.333310658896906 72.87792212023237 34.78517134846559 73.17984713413327 35.28247538441068 73.38583722561788 C 35.77977942035577 73.59182731710249 36.31278838065302 73.69784545898439 36.85106638713833 73.69784545898438 C 37.389344393623645 73.69784545898439 37.92235335392089 73.59182731710249 38.41965738986598 73.38583722561788 C 38.916961425811074 73.17984713413327 39.36882211537976 72.87792212023237 39.74944214426159 72.49730205416863 C 40.13006217314343 72.11668198810489 40.431987157549955 71.66482125439495 40.637977228911865 71.16751716986936 C 40.843967300273775 70.67021308534376 40.94998933590323 70.13720407297808 40.94998933590323 69.5989260139096 C 40.94998933590323 69.06064795484113 40.843967300273775 68.52763894247543 40.637977228911865 68.03033485794984 C 40.431987157549955 67.53303077342424 40.13006217314343 67.08117003971431 39.74944214426159 66.70054997365057 L 13.983380920286367 40.94267314004436 L 110.53856657871246 40.94267314004436 C 111.6242966266377 40.94267314004436 112.66556106229288 40.51137163479182 113.43328809426434 39.74364452782285 C 114.2010151262358 38.97591742085388 114.63231658935547 37.934652883479934 114.63231658935547 36.84892272949219 Z" fill="rgb(255,255,255)"/>
        </svg>