<svg 
          width="9.776611328125" 
          height="13.063077926635742" fill="none" 
          xmlns="http://www.w3.org/2000/svg">
          <path d="M 4.284905511352312 12.76954702427292 C 2.955897389510938 11.127309724709791 0 7.14705803449975 0 4.911364120006461 C 0 2.1988586211420165 2.188535158372057 0 4.8883056640625 0 C 7.587057749430339 0 9.776611328125 2.1988586211420165 9.776611328125 4.911364120006461 C 9.776611328125 7.14705803449975 6.797799966965007 11.127309724709791 5.491705816772689 12.76954702427292 C 5.17854873031259 13.160921357464938 4.598062597812411 13.160921357464938 4.284905511352312 12.76954702427292 L 4.284905511352312 12.76954702427292 Z M 4.8883056640625 6.548485493341948 C 5.787041008916276 6.548485493341948 6.517740885416667 5.8143388579708075 6.517740885416667 4.911364120006461 C 6.517740885416667 4.008389382042114 5.787041008916276 3.274242746670974 4.8883056640625 3.274242746670974 C 3.989570319208724 3.274242746670974 3.2588704427083335 4.008389382042114 3.2588704427083335 4.911364120006461 C 3.2588704427083335 5.8143388579708075 3.989570319208724 6.548485493341948 4.8883056640625 6.548485493341948 Z" fill="rgb(0,0,0)"/>
        </svg>